<svg xmlns="http://www.w3.org/2000/svg" id="prefix__Shape" width="30" height="32" viewBox="0 0 30 32">
    <g id="prefix__Shape-2" data-name="Shape">
        <path id="prefix__Shape-3" fill="#bfc5d2" d="M11.363 30.491a5 5 0 0 1-1.4-2.609H.944a.935.935 0 0 1-.923-.713.893.893 0 0 1 .534-1.013c3.558-1.535 3.693-8.127 3.7-8.293v-4.422a10.3 10.3 0 0 1 6.586-9.474A4.08 4.08 0 0 1 15 0a4.081 4.081 0 0 1 4.163 3.966 10.3 10.3 0 0 1 6.586 9.474v4.423c0 .167.138 6.758 3.694 8.294a.891.891 0 0 1 .535 1.012.936.936 0 0 1-.923.713h-9.017a5 5 0 0 1-1.4 2.609 5.138 5.138 0 0 1-7.275 0z" data-name="Shape"/>
    </g>
</svg>
